<?xml version="1.0" encoding="UTF-8" standalone="no"?> <svg xmlns="http://www.w3.org/2000/svg" version="1.0" width="1280.000000pt" height="282.000000pt" viewBox="0 0 1280.000000 282.000000" preserveAspectRatio="xMidYMid meet"><metadata> Created by potrace 1.14, written by Peter Selinger 2001-2017 </metadata><g transform="translate(0.000000,282.000000) scale(0.100000,-0.100000)" fill="#000000" stroke="none"><path d="M3074 2607 c-62 -116 -276 -525 -477 -907 -201 -382 -369 -703 -372 -712 -7 -17 10 -18 261 -18 l269 0 113 220 113 220 581 -2 580 -3 118 -215 117 -215 268 -3 c246 -2 267 -1 261 14 -4 10 -100 193 -215 408 -115 215 -311 585 -436 821 -125 237 -248 469 -273 518 l-47 87 -375 0 -375 0 -111 -213z m730 -547 c69 -126 126 -232 126 -235 0 -3 -162 -5 -360 -5 -198 0 -360 2 -360 4 0 5 218 413 237 444 13 21 20 22 122 22 l109 0 126 -230z"></path><path d="M5062 1898 l3 -923 285 0 285 0 3 338 2 337 595 0 595 0 0 -340 0 -340 285 0 285 0 0 925 0 925 -285 0 -285 0 0 -360 0 -360 -595 0 -595 0 0 360 0 360 -290 0 -290 0 2 -922z"></path><path d="M8170 2088 c-521 -989 -579 -1102 -580 -1110 0 -5 120 -8 268 -8 l267 0 113 220 114 220 581 -2 582 -3 117 -215 116 -215 266 -3 c146 -1 266 0 266 4 0 5 -82 160 -455 864 -45 85 -180 341 -300 568 l-219 412 -375 0 -376 -1 -385 -731z m1004 -29 c70 -127 126 -233 123 -235 -2 -2 -164 -3 -360 -2 l-356 3 117 220 c64 121 121 226 125 233 6 8 41 12 116 12 l107 0 128 -231z"></path><path d="M10460 1905 c0 -503 0 -918 0 -922 0 -5 130 -9 290 -11 l290 -2 0 656 c0 403 4 654 9 652 10 -3 347 -277 876 -711 l290 -239 5 -176 5 -177 288 -3 287 -2 0 925 0 925 -290 0 -290 0 0 -405 c0 -223 -2 -405 -5 -405 -3 0 -227 182 -498 405 l-492 405 -382 0 -383 0 0 -915z"></path><path d="M1677 2803 c-4 -3 -7 -253 -7 -554 0 -571 -5 -666 -42 -752 -57 -132 -218 -187 -518 -174 -155 7 -236 24 -335 72 -131 63 -216 175 -238 314 l-11 71 -263 0 -263 0 0 -32 c0 -62 41 -202 85 -296 89 -189 231 -340 387 -416 268 -130 669 -175 1071 -120 369 51 573 198 649 471 22 76 22 94 26 751 l3 672 -269 0 c-148 0 -272 -3 -275 -7z"></path><path d="M4625 653 c-65 -9 -169 -48 -218 -82 -93 -65 -148 -184 -133 -285 22 -142 127 -235 307 -272 92 -18 232 -15 344 8 l60 13 3 158 3 157 -146 0 -145 0 0 -35 0 -34 88 -3 87 -3 3 -92 3 -92 -28 -8 c-15 -4 -73 -8 -128 -7 -209 2 -328 94 -329 255 0 79 32 143 96 190 82 58 244 83 371 57 l68 -15 15 30 c9 16 12 33 7 38 -22 21 -228 35 -328 22z"></path><path d="M5150 330 l0 -320 245 0 245 0 0 35 0 35 -185 0 -185 0 0 115 0 115 165 0 165 0 0 35 0 35 -165 0 -165 0 0 100 0 100 175 0 175 0 0 35 0 35 -235 0 -235 0 0 -320z"></path><path d="M5790 330 l0 -320 50 0 50 0 0 266 0 266 47 -63 c25 -35 122 -155 216 -266 l169 -203 59 0 59 0 0 320 0 320 -56 0 -57 0 5 -255 c3 -141 1 -252 -3 -248 -4 4 -31 40 -61 80 -29 39 -120 150 -202 247 l-149 176 -64 0 -63 0 0 -320z"></path><path d="M6630 330 l0 -320 245 0 245 0 0 35 0 35 -185 0 -185 0 0 115 0 115 165 0 165 0 0 35 0 35 -165 0 -165 0 0 100 0 100 175 0 175 0 0 35 0 35 -235 0 -235 0 0 -320z"></path><path d="M7231 538 c28 -62 92 -207 142 -321 l91 -208 65 3 65 3 152 318 152 317 -62 0 -62 0 -103 -227 c-57 -126 -110 -247 -119 -271 -8 -24 -18 -40 -22 -35 -4 4 -21 44 -37 88 -17 44 -65 162 -108 263 l-77 182 -64 0 -63 0 50 -112z"></path><path d="M7990 330 l0 -320 245 0 245 0 0 35 0 35 -185 0 -185 0 0 115 0 115 165 0 165 0 0 35 0 35 -165 0 -165 0 0 100 0 100 175 0 175 0 0 35 0 35 -235 0 -235 0 0 -320z"></path></g></svg> 