<svg width="140" height="140" viewBox="0 0 140 140" fill="none" xmlns="http://www.w3.org/2000/svg">
<path d="M8.80713 74.6702V69.6471M40.5006 21.5688L70.8785 9.13062C73.2306 9.13062 71.0937 9.13062 43.7297 9.13062C41.6029 9.13062 39.5971 9.27367 37.7064 9.5431M40.5006 21.5688L41.4574 42.02M40.5006 21.5688L37.7064 9.5431M40.5006 21.5688L18.8002 19.1354M40.5006 21.5688L70.8785 34.7245L41.4574 42.02M41.4574 42.02L21.2453 41.0632M41.4574 42.02C39.1452 51.229 34.5207 69.7906 34.5207 70.3647C34.5207 70.9388 25.6705 51.0696 21.2453 41.0632M21.2453 41.0632L18.8002 19.1354M21.2453 41.0632L9.61725 37.7089M21.2453 41.0632L8.80713 69.6471M18.8002 19.1354C23.193 14.4214 29.3178 10.7385 37.7064 9.5431M18.8002 19.1354C13.6246 24.6893 10.8535 31.6745 9.61725 37.7089M9.61725 37.7089C9.09644 40.2512 8.84807 42.6247 8.80713 44.6513V69.6471" stroke="black"/>
<path d="M131.193 65.3298V70.3529M99.4994 118.431L69.1215 130.869C66.7694 130.869 68.9063 130.869 96.2703 130.869C98.3971 130.869 100.403 130.726 102.294 130.457M99.4994 118.431L98.5426 97.98M99.4994 118.431L102.294 130.457M99.4994 118.431L121.2 120.865M99.4994 118.431L69.1215 105.275L98.5426 97.98M98.5426 97.98L118.755 98.9368M98.5426 97.98C100.855 88.771 105.479 70.2094 105.479 69.6353C105.479 69.0612 114.33 88.9304 118.755 98.9368M118.755 98.9368L121.2 120.865M118.755 98.9368L130.383 102.291M118.755 98.9368L131.193 70.3529M121.2 120.865C116.807 125.579 110.682 129.262 102.294 130.457M121.2 120.865C126.375 115.311 129.147 108.325 130.383 102.291M130.383 102.291C130.904 99.7488 131.152 97.3753 131.193 95.3487V70.3529" stroke="black"/>
<path d="M131.193 74.6702V69.6471M99.4994 21.5688L69.1215 9.13062C66.7694 9.13062 68.9063 9.13062 96.2703 9.13062C98.3971 9.13062 100.403 9.27367 102.294 9.5431M99.4994 21.5688L98.5426 42.02M99.4994 21.5688L102.294 9.5431M99.4994 21.5688L121.2 19.1354M99.4994 21.5688L70.6342 34.8165L98.5426 42.02M98.5426 42.02L118.755 41.0632M98.5426 42.02C100.855 51.229 105.479 69.7906 105.479 70.3647C105.479 70.9388 114.33 51.0696 118.755 41.0632M118.755 41.0632L121.2 19.1354M118.755 41.0632L130.383 37.7089M118.755 41.0632L131.193 69.6471M121.2 19.1354C116.807 14.4214 110.682 10.7385 102.294 9.5431M121.2 19.1354C126.375 24.6893 129.147 31.6745 130.383 37.7089M130.383 37.7089C130.904 40.2512 131.152 42.6247 131.193 44.6513V69.6471" stroke="black"/>
<path d="M8.80713 65.3298V70.3529M40.5006 118.431L70.8785 130.869C73.2306 130.869 71.0937 130.869 43.7297 130.869C41.6029 130.869 39.5971 130.726 37.7064 130.457M40.5006 118.431L41.4574 97.98M40.5006 118.431L37.7064 130.457M40.5006 118.431L18.8002 120.865M40.5006 118.431L69.3658 105.184L41.4574 97.98M41.4574 97.98L21.2453 98.9368M41.4574 97.98C39.1452 88.771 34.5207 70.2094 34.5207 69.6353C34.5207 69.0612 25.6705 88.9304 21.2453 98.9368M21.2453 98.9368L18.8002 120.865M21.2453 98.9368L9.61725 102.291M21.2453 98.9368L8.80713 70.3529M18.8002 120.865C23.193 125.579 29.3178 129.262 37.7064 130.457M18.8002 120.865C13.6246 115.311 10.8535 108.325 9.61725 102.291M9.61725 102.291C9.09644 99.7488 8.84807 97.3753 8.80713 95.3487V70.3529" stroke="black"/>
</svg>
