<svg width="140" height="140" viewBox="0 0 140 140" fill="none" xmlns="http://www.w3.org/2000/svg">
<path d="M44.6376 33.6213L27.623 9.21489M33.5502 44.5692L8.865 27.4848M95.4855 33.6213L112.683 8.98364M106.594 44.9416L131.197 27.5798M33.57 95.4819L8.81091 112.376M44.4445 106.551L27.453 131.018M95.5161 106.551L112.411 131.018M106.779 95.4819L131.15 112.376" stroke="black"/>
<path d="M72.2688 8.86304H27.5398L8.80347 27.5995V79.5847" stroke="black"/>
<path d="M67.7201 131.137L112.449 131.137L131.185 112.4L131.185 60.415" stroke="black"/>
<path d="M67.7201 8.86304H112.449L131.185 27.5995V79.5847" stroke="black"/>
<path d="M72.2688 131.137L27.5398 131.137L8.80347 112.4L8.80347 60.415" stroke="black"/>
<path d="M21.15 79.5844V36.0468L35.7708 21.426H72.0522" stroke="black"/>
<path d="M118.839 60.4153L118.839 103.953L104.218 118.574L67.9367 118.574" stroke="black"/>
<path d="M118.839 79.5844V36.0468L104.218 21.426H67.9367" stroke="black"/>
<path d="M21.15 60.4153L21.15 103.953L35.7708 118.574L72.0522 118.574" stroke="black"/>
<path d="M33.4965 79.3682V44.4949L44.5434 33.448H72.4854" stroke="black"/>
<path d="M106.492 60.6316L106.492 95.5049L95.4454 106.552L67.5034 106.552" stroke="black"/>
<path d="M106.492 79.3682V44.4949L95.4454 33.448H67.5034" stroke="black"/>
<path d="M33.4965 60.6316L33.4965 95.5049L44.5434 106.552L72.4854 106.552" stroke="black"/>
</svg>
