<svg width="140" height="140" viewBox="0 0 140 140" fill="none" xmlns="http://www.w3.org/2000/svg">
<path d="M71.6788 117.467H49.1811L44.0831 112.369V68.9504" stroke="black"/>
<path d="M71.1916 117.467H90.8189L95.9169 112.369V68.9504" stroke="black"/>
<path d="M68.8084 22.53H49.1811L44.0831 27.628V71.0461" stroke="black"/>
<path d="M68.4552 22.53H90.8189L95.9169 27.628V71.0461" stroke="black"/>
<path d="M71.3883 129.047H40.1741L32.3457 121.218V68.4326" stroke="black"/>
<path d="M71.1964 129.047H99.8259L107.654 121.218V68.4326" stroke="black"/>
<path d="M68.8036 10.9499H40.1741L32.3457 18.7782V71.564" stroke="black"/>
<path d="M68.4171 10.9499H99.8259L107.654 18.7782V71.564" stroke="black"/>
<path d="M69.0274 123.231H44.6475L38.1611 116.745V68.6562" stroke="black"/>
<path d="M68.1928 123.231H95.3525L101.839 116.745V68.6562" stroke="black"/>
<path d="M71.5402 16.7653H44.6475L38.1611 23.2517V71.3403" stroke="black"/>
<path d="M70.9726 16.7653H95.3525L101.839 23.2517V71.3403" stroke="black"/>
<path d="M26.5736 14.1206L35.4222 5.27197H70" stroke="black"/>
<path d="M113.426 14.1206L104.578 5.27197H70" stroke="black"/>
<path d="M26.7097 14.1206C26.7097 14.9918 26.7097 88.9031 26.7097 125.75L35.6879 134.728H69.0104" stroke="black"/>
<path d="M113.29 14.1206C113.29 14.9918 113.29 88.9031 113.29 125.75L104.312 134.728H67.7087" stroke="black"/>
<path d="M35.7565 134.715L49.521 117.127" stroke="black"/>
<path d="M35.7565 5.27197L49.521 22.8601" stroke="black"/>
<path d="M104.175 134.715L90.4109 117.127" stroke="black"/>
<path d="M104.175 5.27197L90.4109 22.8601" stroke="black"/>
<path d="M26.6649 125.793L44.1681 112.029" stroke="black"/>
<path d="M26.6649 14.1936L44.1681 27.958" stroke="black"/>
<path d="M113.267 125.793L95.7638 112.029" stroke="black"/>
<path d="M113.267 14.1936L95.7638 27.958" stroke="black"/>
</svg>
