<svg width="140" height="140" viewBox="0 0 140 140" fill="none" xmlns="http://www.w3.org/2000/svg">
<path d="M36.2437 87.3948L45.7314 84.6143" stroke="black"/>
<path d="M103.408 86.9708L94.453 84.6143" stroke="black"/>
<path d="M33.532 69.6189C33.532 107.207 70.1409 135.046 70.1409 135.046" stroke="black"/>
<path d="M106.468 69.6189C106.468 107.207 69.8593 135.046 69.8593 135.046" stroke="black"/>
<path d="M70.213 135.076L61.9909 115.125L58.6054 95.7788L48.6906 69.6616" stroke="black"/>
<path d="M69.9713 135.076L78.1934 115.125L81.5789 95.7788L91.4938 69.6616" stroke="black"/>
<path d="M48.6906 69.5408L45.6678 84.534V106.661L62.112 115.851L69.9713 111.619L58.6055 96.0207L44.9434 84.1613L33.7163 69.8109" stroke="black"/>
<path d="M91.4937 69.5408L94.5165 84.534V106.661L78.0723 115.851L70.213 111.619L81.5788 96.0207L95.2409 84.1613L106.468 69.8109" stroke="black"/>
<path d="M103.756 52.6054L94.2687 55.386" stroke="black"/>
<path d="M36.5923 53.0294L45.5472 55.386" stroke="black"/>
<path d="M106.468 70.3814C106.468 32.7928 69.8593 4.95459 69.8593 4.95459" stroke="black"/>
<path d="M33.532 70.3814C33.532 32.7928 70.1409 4.95459 70.1409 4.95459" stroke="black"/>
<path d="M69.7871 4.92463L78.0092 24.8753L81.3947 44.2214L91.3096 70.3386" stroke="black"/>
<path d="M70.0288 4.92463L61.8067 24.8753L58.4212 44.2214L48.5063 70.3386" stroke="black"/>
<path d="M91.3095 70.4595L94.3323 55.4662L94.3323 33.3391L77.8881 24.1497L70.0288 28.3817L81.3946 43.9795L95.0567 55.8389L106.284 70.1893" stroke="black"/>
<path d="M48.5063 70.4595L45.4835 55.4662L45.4835 33.3391L61.9277 24.1497L69.787 28.3817L58.4212 43.9795L44.7591 55.8389L33.532 70.1893" stroke="black"/>
</svg>
