<svg width="140" height="140" viewBox="0 0 140 140" fill="none" xmlns="http://www.w3.org/2000/svg">
<path d="M114.569 69.9999C114.569 88.2882 109.548 104.823 101.455 116.771C93.3601 128.723 82.23 136.041 70 136.041C57.77 136.041 46.6399 128.723 38.5452 116.771C30.4524 104.823 25.4308 88.2882 25.4308 69.9999C25.4308 51.7115 30.4524 35.1768 38.5452 23.2284C46.6399 11.2772 57.77 3.9585 70 3.9585C82.23 3.9585 93.3601 11.2772 101.455 23.2284C109.548 35.1768 114.569 51.7115 114.569 69.9999Z" stroke="black"/>
<path d="M44.6206 70.1854L54.4291 18.3374L69.6759 22.9659L49.5283 37.2598L37.8208 48.8312L25.3264 70.1854" stroke="black"/>
<path d="M44.4529 69.934L54.4294 121.674L69.6763 117.045L49.5286 102.751L37.8211 91.1801L25.3264 69.934" stroke="black"/>
<path d="M95.1639 69.8924L85.2472 18.3374L70.0003 22.9659L90.148 37.2598L101.855 48.8312L114.642 69.6292" stroke="black"/>
<path d="M95.1638 69.6295L85.2471 121.674L70.0002 117.045L90.1479 102.751L101.855 91.1801L114.567 69.6295" stroke="black"/>
<path d="M44.5017 70.2426L37.6849 48.9673L34.5538 29.9087L54.4293 18.4735L69.5401 4.04346" stroke="black"/>
<path d="M44.626 70.3361L37.6849 91.0439L34.5538 110.103L54.4293 121.538L69.5401 135.968" stroke="black"/>
<path d="M95.1211 70.1015L101.991 48.9673L105.122 29.9087L85.247 18.4735L70.1362 4.04346" stroke="black"/>
<path d="M95.1211 69.7662L101.991 91.0439L105.122 110.103L85.247 121.538L70.1362 135.968" stroke="black"/>
<path d="M37.9572 48.9675L28.4279 46.5171" stroke="black"/>
<path d="M37.9572 91.0437L28.4279 93.4941" stroke="black"/>
<path d="M101.719 48.9675L111.248 46.5171" stroke="black"/>
<path d="M101.719 91.0437L111.248 93.4941" stroke="black"/>
<path d="M54.5654 18.4736L48.7117 11.8032" stroke="black"/>
<path d="M54.5654 121.538L48.7117 128.208" stroke="black"/>
<path d="M85.1108 18.4736L90.9646 11.8032" stroke="black"/>
<path d="M85.1108 121.538L90.9646 128.208" stroke="black"/>
</svg>
