<svg width="140" height="140" viewBox="0 0 140 140" fill="none" xmlns="http://www.w3.org/2000/svg">
<path d="M29.0022 76.04L40.0059 73.1443" stroke="black"/>
<path d="M110.878 76.04L99.8744 73.1443" stroke="black"/>
<path d="M27.0845 36.0957L38.0439 39.3982" stroke="black"/>
<path d="M112.796 36.0957L101.836 39.3982" stroke="black"/>
<path d="M114.985 49.9812C114.985 25.1369 94.8443 4.99658 70 4.99658C45.1557 4.99658 25.0154 25.1369 25.0154 49.9812" stroke="black"/>
<path d="M25.0154 49.9809C25.0154 102.266 70 135.114 70 135.114C70 135.114 114.985 99.1632 114.985 49.9809" stroke="black"/>
<path d="M70.0887 135.151L59.9855 110.636L55.8254 86.8635L43.6421 54.7709L51.6652 33.5243L54.191 17.7752L69.7916 4.84912" stroke="black"/>
<path d="M69.7915 135.151L79.8948 110.636L84.0549 86.8635L96.2382 54.7709L88.215 33.5243L85.6892 17.7752L70.0886 4.84912" stroke="black"/>
<path d="M49.1394 10.3464L54.4881 17.6267M54.4881 17.6267L69.7916 26.0956L51.5166 34.5645L37.8475 39.3189L43.642 54.6224L39.9276 73.0459V100.236L60.1341 111.527L69.7916 106.327L55.8253 87.1607L39.0375 72.5879L25.2417 54.9544L37.7546 39.029L37.8475 18.4736L54.4881 17.6267Z" stroke="black"/>
<path d="M90.7409 10.3464L85.3921 17.6267M85.3921 17.6267L70.0887 26.0956L88.3637 34.5645L102.033 39.3189L96.2382 54.6224L99.9526 73.0459V100.236L79.7462 111.527L70.0887 106.327L84.0549 87.1607L100.843 72.5879L114.639 54.9544L102.126 39.029L102.033 18.4736L85.3921 17.6267Z" stroke="black"/>
</svg>
