<svg width="140" height="140" viewBox="0 0 140 140" fill="none" xmlns="http://www.w3.org/2000/svg">
<path d="M116.454 89.6943L137.902 69.4231" stroke="black"/>
<path d="M33.9303 69.1616L23.8601 88.3865L22.683 117.943" stroke="black"/>
<path d="M52.0939 22.8728L22.7392 21.3901" stroke="black"/>
<path d="M50.3596 115.593L70.0681 137.399" stroke="black"/>
<path d="M89.1251 22.8728L117.188 21.3901" stroke="black"/>
<path d="M24.1228 88.4163L2.36926 69.6997" stroke="black"/>
<path d="M24.5183 50.7449L23.0356 21.3901" stroke="black"/>
<path d="M89.5671 115.384L69.8585 137.189" stroke="black"/>
<path d="M71.0707 32.6579L44.9776 43.3322L51.7974 22.8728L44.9776 7.00928" stroke="black"/>
<path d="M44.5418 94.9246L69.8585 106.158L50.5307 115.764L44.1743 131.843" stroke="black"/>
<path d="M34.0337 68.7992L44.9776 94.8923L24.0015 88.0725L7.73734 94.8923" stroke="black"/>
<path d="M95.605 95.889L106.317 69.6999L116.327 89.3545L132.65 96.0327" stroke="black"/>
<path d="M70.1483 32.658L96.2414 43.3324L89.4216 22.873L95.8816 7.91309" stroke="black"/>
<path d="M34.0337 69.7218L44.9776 43.3323L24.0015 50.2295L7.73734 43.3323" stroke="black"/>
<path d="M106.336 69.7218L95.3916 43.3323L116.368 50.2295L132.632 43.3323" stroke="black"/>
<path d="M96.2573 95.2367L69.8586 106.158L89.568 116.114L96.1914 132.491" stroke="black"/>
<circle cx="70" cy="70" r="67.5" stroke="black"/>
<path d="M71.219 32.8059L51.7974 22.7243L71.219 2.56152" stroke="black"/>
<path d="M44.7405 94.8923L50.8091 115.563L22.1599 117.42" stroke="black"/>
<path d="M95.205 95.6983L116.5 89.5271L117.89 118.384" stroke="black"/>
<path d="M70 32.8059L89.4216 22.7243L70 2.56152" stroke="black"/>
<path d="M34.4513 69.8701L23.7572 50.4485L2.36926 69.8701" stroke="black"/>
<path d="M105.918 69.8701L116.612 50.4485L138 69.8701" stroke="black"/>
<path d="M96.0669 94.8363L89.8956 116.131L118.752 117.522" stroke="black"/>
<path d="M117.049 21.1948L116.496 50.4563" stroke="black"/>
</svg>
